<svg width="16" height="16" viewBox="0 0 16 16" fill="none" xmlns="http://www.w3.org/2000/svg">
<g clip-path="url(#clip0_0_1401)">
<path fill-rule="evenodd" clip-rule="evenodd" d="M5.21533 2.24534C5.3038 1.97973 5.47362 1.7487 5.70073 1.58501C5.92784 1.42132 6.20071 1.33327 6.48067 1.33334H9.51933C9.79929 1.33327 10.0722 1.42132 10.2993 1.58501C10.5264 1.7487 10.6962 1.97973 10.7847 2.24534L11.1467 3.33334H13.3333C13.5101 3.33334 13.6797 3.40357 13.8047 3.5286C13.9298 3.65362 14 3.82319 14 4C14 4.17681 13.9298 4.34638 13.8047 4.47141C13.6797 4.59643 13.5101 4.66667 13.3333 4.66667H12.6667V12.6667C12.6667 13.1971 12.456 13.7058 12.0809 14.0809C11.7058 14.456 11.1971 14.6667 10.6667 14.6667H5.33333C4.8029 14.6667 4.29419 14.456 3.91912 14.0809C3.54405 13.7058 3.33333 13.1971 3.33333 12.6667V4.66667H2.66667C2.48986 4.66667 2.32029 4.59643 2.19526 4.47141C2.07024 4.34638 2 4.17681 2 4C2 3.82319 2.07024 3.65362 2.19526 3.5286C2.32029 3.40357 2.48986 3.33334 2.66667 3.33334H4.85333L5.21533 2.24534ZM6.258 3.33334L6.48067 2.66667H9.51933L9.742 3.33334H6.258Z" fill="#323749"/>
</g>
<defs>
<clipPath id="clip0_0_1401">
<path d="M0 8C0 3.58172 3.58172 0 8 0H16V16H8C3.58172 16 0 12.4183 0 8Z" fill="white"/>
</clipPath>
</defs>
</svg>
