<svg width="14" height="14" viewBox="0 0 14 14" fill="none" xmlns="http://www.w3.org/2000/svg">
<path d="M0.666626 6.66667C0.666626 7.4546 0.821821 8.23482 1.12335 8.96277C1.42488 9.69073 1.86683 10.3522 2.42399 10.9093C2.98114 11.4665 3.64257 11.9084 4.37053 12.2099C5.09848 12.5115 5.87869 12.6667 6.66663 12.6667C7.45456 12.6667 8.23477 12.5115 8.96273 12.2099C9.69068 11.9084 10.3521 11.4665 10.9093 10.9093C11.4664 10.3522 11.9084 9.69073 12.2099 8.96277C12.5114 8.23482 12.6666 7.4546 12.6666 6.66667C12.6666 5.07537 12.0345 3.54925 10.9093 2.42403C9.78405 1.29881 8.25793 0.666672 6.66663 0.666672C5.07533 0.666672 3.5492 1.29881 2.42399 2.42403C1.29877 3.54925 0.666626 5.07537 0.666626 6.66667Z" stroke="#5B5F6E" stroke-width="1.33333" stroke-linecap="round" stroke-linejoin="round"/>
<path d="M6.66663 3.33334V6.66668L8.66663 8.66668" stroke="#5B5F6E" stroke-width="1.33333" stroke-linecap="round" stroke-linejoin="round"/>
</svg>
